# xmcd CD database file
#
# Track frame offsets:
#	150
#	12934
#	26414
#	45958
#	62579
#	79118
#	92903
#	107768
#	123096
#	137388
#	153324
#	169853
#	186945
#
# Disc length: 2685 seconds
#
# Revision: 0
# Processed by: cddbd v1.5.2PL0 Copyright (c) Steve Scherf et al.
# Submitted via: CDex 1.51
#
DISCID=960a7b0d
DTITLE=Korey Livy - That's The Way We Do It Round Here
DYEAR=1900
DGENRE=Country
TTITLE0=Korey Livy - Give It Up And Put It Down
TTITLE1=Korey Livy - Love Another Day
TTITLE2=Korey Livy - Letting Go
TTITLE3=Korey Livy - All Gonna Be Ok
TTITLE4=Korey Livy - Not Yet
TTITLE5=Korey Livy - Gym Junkie
TTITLE6=Korey Livy - I Guess I'm Doin' Ok
TTITLE7=Korey Livy - I Wish You Wouldn't Love Me Anymore
TTITLE8=Korey Livy - That's The Way We Do It Round Here
TTITLE9=Korey Livy - Friend
TTITLE10=Korey Livy - Better Off Movin' On
TTITLE11=Korey Livy - Steal My Heart Away
TTITLE12=Korey Livy - Little Boy
EXTD=
EXTT0=
EXTT1=
EXTT2=
EXTT3=
EXTT4=
EXTT5=
EXTT6=
EXTT7=
EXTT8=
EXTT9=
EXTT10=
EXTT11=
EXTT12=
PLAYORDER=
